<?xml version="1.0" encoding="UTF-8" standalone="no"?>
<!DOCTYPE svg PUBLIC "-//W3C//DTD SVG 1.1//EN" "http://www.w3.org/Graphics/SVG/1.1/DTD/svg11.dtd">
<svg width="100%" height="100%" viewBox="0 0 1769 400" version="1.1" xmlns="http://www.w3.org/2000/svg" xmlns:xlink="http://www.w3.org/1999/xlink" xml:space="preserve" xmlns:serif="http://www.serif.com/" style="fill-rule:evenodd;clip-rule:evenodd;stroke-linejoin:round;stroke-miterlimit:2;">
    <g transform="matrix(1,0,0,1,-768.828,-282.056)">
        <g transform="matrix(0.966022,0,0,0.966022,366.175,-542.413)">
            <text x="939.574px" y="1215.47px" style="font-family:'Inter-ExtraBold', 'Inter';font-weight:800;font-size:400px;fill:rgb(0,28,98);">MiADE</text>
        </g>
        <g transform="matrix(0.336984,0,0,0.336984,339.51,34.3726)">
            <path d="M1944.35,739.996C1893.33,733.335 1841.67,733.335 1790.65,739.996L1772.94,853.095C1710.51,865.513 1651.13,890.107 1598.2,925.471L1505.7,858.026C1464.92,889.389 1428.39,925.921 1397.03,966.704L1464.47,1059.2C1429.11,1112.13 1404.51,1171.51 1392.1,1233.94L1279,1251.65C1272.34,1302.67 1272.34,1354.33 1279,1405.35L1392.1,1423.06C1404.51,1485.5 1429.11,1544.87 1464.47,1597.8L1397.03,1690.3C1428.39,1731.08 1464.92,1767.61 1505.7,1798.97L1598.2,1731.53C1651.13,1766.89 1710.51,1791.49 1772.94,1803.9L1790.65,1917C1841.67,1923.66 1893.33,1923.66 1944.35,1917L1962.06,1803.9C2024.5,1791.49 2083.87,1766.89 2136.8,1731.53L2229.3,1798.97C2270.08,1767.61 2306.61,1731.08 2337.97,1690.3L2270.53,1597.8C2305.89,1544.87 2330.49,1485.5 2342.91,1423.06L2456,1405.35C2462.66,1354.33 2462.66,1302.67 2456,1251.65L2342.91,1233.94C2330.49,1171.51 2305.89,1112.13 2270.53,1059.2L2337.97,966.704C2306.61,925.921 2270.08,889.389 2229.3,858.026L2136.8,925.471C2083.87,890.107 2024.5,865.513 1962.06,853.095L1944.35,739.996ZM1867.5,991.096C2053.72,991.096 2204.9,1142.28 2204.9,1328.5C2204.9,1514.72 2053.72,1665.9 1867.5,1665.9C1681.28,1665.9 1530.1,1514.72 1530.1,1328.5C1530.1,1142.28 1681.28,991.096 1867.5,991.096Z" style="fill:rgb(0,28,98);"/>
        </g>
        <g transform="matrix(0.187364,0.187364,-0.187364,0.187364,859.969,-54.5559)">
            <path d="M1855.67,875.167L1988.83,1008.33L1855.67,1141.5L1988.83,1274.67L1855.67,1407.83L1722.5,1274.67L1589.33,1407.83L1456.17,1274.67L1589.33,1141.5L1456.17,1008.33L1589.33,875.167L1722.5,1008.33L1855.67,875.167Z" style="fill:rgb(198,40,0);"/>
        </g>
    </g>
</svg>
